<svg width="34" height="24" viewBox="0 0 34 24" fill="none" xmlns="http://www.w3.org/2000/svg">
<path d="M4.12534 7.43842C4.12519 6.20565 4.43147 4.99217 5.01663 3.90713C5.60179 2.82209 6.44748 1.89952 7.47764 1.2224C8.5078 0.545272 9.69011 0.13483 10.9182 0.0279876C12.1464 -0.0788547 13.3818 0.121253 14.5134 0.610313C15.645 1.09937 16.6373 1.86205 17.4011 2.82974C18.1648 3.79743 18.676 4.93979 18.8888 6.15406C19.1015 7.36834 19.0091 8.61645 18.6198 9.78615C18.2305 10.9558 17.5566 12.0104 16.6586 12.855C18.3518 13.6767 19.8219 14.8945 20.9443 16.4053C22.0666 17.9161 22.8081 19.6752 23.1058 21.5335C23.1386 21.7403 23.1304 21.9515 23.0815 22.1551C23.0327 22.3587 22.9442 22.5507 22.8212 22.7201C22.6982 22.8895 22.543 23.033 22.3645 23.1424C22.186 23.2519 21.9877 23.3251 21.7809 23.3579C21.5741 23.3906 21.3629 23.3824 21.1593 23.3335C20.9557 23.2847 20.7637 23.1962 20.5943 23.0732C20.4249 22.9502 20.2814 22.795 20.172 22.6165C20.0626 22.438 19.9894 22.2397 19.9566 22.0329C19.6379 20.0361 18.6177 18.2183 17.0793 16.9059C15.5408 15.5936 13.585 14.8727 11.5628 14.8727C9.54072 14.8727 7.58483 15.5936 6.04641 16.9059C4.50799 18.2183 3.48782 20.0361 3.16909 22.0329C3.13616 22.2397 3.06283 22.438 2.95327 22.6164C2.84372 22.7949 2.70009 22.95 2.53059 23.0729C2.36108 23.1958 2.16903 23.2842 1.96539 23.3329C1.76174 23.3816 1.5505 23.3897 1.34372 23.3568C1.13693 23.3239 0.938661 23.2505 0.76022 23.141C0.581779 23.0314 0.426663 22.8878 0.30373 22.7183C0.180797 22.5488 0.0924535 22.3567 0.0437436 22.1531C-0.00496633 21.9494 -0.0130887 21.7382 0.0198403 21.5314C0.318052 19.6738 1.05976 17.9154 2.1821 16.4054C3.30443 14.8954 4.77429 13.6783 6.46709 12.8572C5.72689 12.1621 5.13716 11.3226 4.73437 10.3906C4.33158 9.45855 4.1243 8.45378 4.12534 7.43842ZM23.2503 4.25092C24.485 4.25178 25.6928 4.61102 26.7273 5.28505C27.7617 5.95907 28.5783 6.91888 29.0778 8.04797C29.5773 9.17706 29.7383 10.4269 29.5413 11.6457C29.3443 12.8645 28.7977 14 27.9678 14.9142C29.2613 15.5563 30.4106 16.4549 31.3458 17.5552C32.281 18.6555 32.9826 19.9346 33.4078 21.3147C33.4921 21.5826 33.5039 21.868 33.4422 22.1419C33.3805 22.4159 33.2473 22.6687 33.0564 22.8745C32.8654 23.0804 32.6233 23.2321 32.3547 23.3142C32.0862 23.3963 31.8007 23.4058 31.5272 23.3419C31.254 23.2783 31.0023 23.1438 30.7976 22.9521C30.5928 22.7604 30.4421 22.5181 30.3606 22.2497C29.9797 21.0176 29.2857 19.9055 28.3463 19.022C27.407 18.1385 26.2544 17.5138 25.0013 17.2092C24.6534 17.1252 24.3438 16.9264 24.1225 16.645C23.9012 16.3636 23.7811 16.0159 23.7816 15.6579V14.9099C23.7814 14.6132 23.864 14.3223 24.0202 14.07C24.1764 13.8177 24.3999 13.6141 24.6656 13.4819C25.3098 13.1626 25.8272 12.6349 26.1336 11.9845C26.4401 11.3341 26.5176 10.5992 26.3537 9.89914C26.1898 9.19908 25.794 8.57501 25.2306 8.1283C24.6672 7.68158 23.9693 7.43846 23.2503 7.43842C22.8277 7.43842 22.4223 7.27051 22.1234 6.97162C21.8245 6.67273 21.6566 6.26736 21.6566 5.84467C21.6566 5.42198 21.8245 5.0166 22.1234 4.71772C22.4223 4.41883 22.8277 4.25092 23.2503 4.25092ZM11.5628 3.18842C10.9969 3.17562 10.434 3.27602 9.90741 3.48373C9.38078 3.69144 8.90095 4.00227 8.4961 4.39797C8.09124 4.79368 7.76953 5.26628 7.54983 5.78802C7.33014 6.30977 7.2169 6.87015 7.21676 7.43627C7.21662 8.00238 7.32958 8.56282 7.54901 9.08468C7.76844 9.60654 8.08992 10.0793 8.49458 10.4752C8.89923 10.8711 9.37891 11.1822 9.90544 11.3902C10.432 11.5981 10.9947 11.6988 11.5607 11.6863C12.6712 11.6617 13.7279 11.2034 14.5046 10.4095C15.2814 9.61558 15.7165 8.54911 15.7168 7.43839C15.717 6.32768 15.2825 5.26099 14.5061 4.46667C13.7297 3.67235 12.6733 3.21353 11.5628 3.18842Z" fill="#F3F3F3"/>
</svg>
