<svg width="34" height="33" viewBox="0 0 34 33" fill="none" xmlns="http://www.w3.org/2000/svg">
<path d="M7.23038 0.96159C6.24051 2.05431 4.94937 6.46888 4.94937 8.69801C4.94937 9.44106 5.72405 11.7576 6.67089 13.8119L8.3924 17.6146V24.0834V30.5523L4.21772 30.6834C0.043038 30.8146 0 30.8146 0 31.9073V33H17H34V31.9073C34 30.8146 33.957 30.8146 29.8253 30.6834L25.6076 30.5523V26.6623C25.6076 22.7722 25.6076 22.6848 28.0177 17.7894C30.1696 13.3748 30.4278 12.6318 30.1696 11.1457C29.8253 9.35364 27.4152 6.68742 22.0354 2.09801L19.5392 0H13.8152C8.43544 0 8.0481 0.0437088 7.23038 0.96159ZM23.0684 6.6C25.3924 8.78543 27.4152 10.9709 27.5873 11.4517C27.7595 12.0199 27.4582 13.2 26.8557 14.555L25.8228 16.7841L25.6076 13.7245L25.3924 10.7086L19.4532 10.5775C14.3747 10.4901 13.5139 10.5775 13.2987 11.1457C13.1266 11.5391 13.643 13.2437 14.3747 14.9483C15.838 18.3139 15.9671 19.2318 15.1924 20.0185C14.5038 20.7179 12.8253 20.6742 12.3949 19.9748C11.2759 18.1828 7.53165 9.30993 7.53165 8.39205C7.53165 7.82384 7.83291 6.29404 8.22025 4.98278L8.86582 2.62252H13.8582H18.8076L23.0684 6.6ZM23.0253 21.8543V30.596H17H10.9747V26.4437V22.2914L12.0937 22.7285C14.0734 23.5152 15.3215 23.2093 16.8278 21.6795C18.5494 19.9311 18.6785 18.5325 17.4304 15.5166C16.957 14.3801 16.5696 13.3748 16.5696 13.2874C16.5696 13.2 18.0329 13.1126 19.7975 13.1126H23.0253V21.8543Z" fill="#42B261"/>
</svg>
