<svg width="54" height="75" viewBox="0 0 54 75" fill="green" xmlns="http://www.w3.org/2000/svg">
<g clip-path="url(#clip0_4_2)">
<path fill-rule="evenodd" clip-rule="evenodd" d="M36.2323 8.39982C34.7803 2.17124 34.3647 0.518906 34.1895 0.272075C33.937 -0.0827657 33.5022 -0.0925869 33.413 0.254769C33.346 0.514612 33.7755 2.72921 35.326 10.1182C35.7653 12.2109 36.3363 14.9726 36.5952 16.2552C36.8542 17.5378 37.3722 20.051 37.7465 21.8399C38.5645 25.7504 39.0085 27.8982 39.0085 27.9435C39.0085 27.9618 38.9508 27.977 38.88 27.977C38.8095 27.977 38.47 28.1072 38.1253 28.2664C37.7805 28.4258 37.2405 28.651 36.9248 28.7675C36.6093 28.8839 36.351 29.0281 36.351 29.0875C36.351 29.1473 36.441 29.3878 36.551 29.622L36.751 30.0481L37.8192 30.133C38.8572 30.2156 38.8875 30.2268 38.8875 30.5258C38.8875 30.7147 38.7005 31.0401 38.4045 31.3665C38.1387 31.6594 37.9212 31.9589 37.9212 32.0319C37.9212 32.1048 37.545 32.6227 37.085 33.1823C36.1968 34.2628 35.667 35.2261 35.8162 35.489C35.866 35.5764 35.8635 35.6087 35.811 35.5604C35.7585 35.5121 35.611 35.5294 35.4835 35.5988C35.3043 35.6964 35.1098 35.6535 34.63 35.4104C34.2882 35.2373 33.933 35.0959 33.8402 35.0959C33.7005 35.0959 33.6868 34.8244 33.7593 33.494L33.8462 31.892L34.322 31.4181C34.7847 30.9572 34.797 30.9226 34.7735 30.1663C34.7507 29.4389 34.9495 27.9508 35.103 27.6984C35.1405 27.6366 35.0697 27.3717 34.946 27.1096C34.775 26.7483 34.583 26.5726 34.151 26.383C33.838 26.2454 33.3977 25.9401 33.1727 25.7047C32.9475 25.4692 32.7157 25.2767 32.6572 25.2767C32.599 25.2767 32.2393 25.0811 31.8582 24.842C31.1922 24.4243 31.1265 24.4087 30.17 24.4431C29.253 24.476 29.1695 24.5004 29.109 24.7539C29.0467 25.0151 29.0263 25.0196 28.6978 24.846L28.6427 24.8168C28.4307 24.7044 28.348 24.6605 28.2997 24.6855C28.269 24.7016 28.2525 24.746 28.2253 24.819C28.2218 24.8284 28.2183 24.8382 28.2143 24.8485C28.1055 25.1362 28.3755 25.6124 28.7523 25.7977L29.0933 25.9658L28.5053 26.609L27.9172 27.252L27.0045 27.2794C25.9785 27.3102 25.695 27.463 25.9363 27.8555C26.1635 28.2249 26.1158 28.3452 25.7423 28.3452C25.2718 28.3452 25.232 28.4212 25.439 28.9251C25.538 29.1653 25.5883 29.4862 25.5505 29.638C25.4663 29.9792 25.782 30.212 26.7015 30.4866C27.4805 30.7192 27.763 30.8863 27.594 31.0147C27.5275 31.0653 27.3965 31.2577 27.303 31.4423L27.1327 31.7776L26.7595 31.5483C26.5543 31.4225 26.0765 31.2816 25.698 31.2356C25.3195 31.1896 24.8846 31.0531 24.7318 30.932C24.4963 30.7454 23.2983 30.106 21.2111 29.0532C20.9555 28.9243 20.6583 28.8534 20.5504 28.8953C20.4426 28.9373 20.3894 28.9363 20.4323 28.8925C20.5037 28.8201 20.2465 28.664 18.5753 27.7647C18.2652 27.598 17.9119 27.3699 17.7903 27.2581C17.3437 26.8477 15.973 26.0156 15.0324 25.5844C13.4706 24.868 11.6306 23.9387 10.1061 23.0958C9.0194 22.495 8.5906 22.1838 8.29432 21.781C7.90127 21.2466 7.65828 21.0811 6.58715 20.6189C6.26018 20.4777 5.771 20.1786 5.50007 19.9541C4.67497 19.2707 4.07153 19.0617 3.94653 19.4158C3.85245 19.6826 4.08098 19.9686 4.79615 20.4788C5.17795 20.7515 5.5601 21.0884 5.64537 21.2278C5.73053 21.3671 5.86123 21.443 5.93575 21.3961C6.01837 21.3443 6.03757 21.3664 5.98502 21.4527C5.78695 21.7785 5.20982 21.5947 4.47652 20.972C4.0463 20.6066 3.68502 20.3864 3.6018 20.4387C3.51327 20.4943 3.49238 20.4745 3.54638 20.386C3.59372 20.3081 3.57317 20.2443 3.50082 20.2443C3.29345 20.2443 3.20298 20.6261 3.38355 20.7395C3.47305 20.7957 3.589 20.8149 3.6413 20.7821C3.6935 20.7494 3.70773 20.7978 3.67295 20.89C3.63815 20.9822 3.7203 21.1593 3.85558 21.2837C3.99073 21.408 4.10138 21.5766 4.10138 21.6584C4.10138 21.8102 3.95292 21.7912 2.65195 21.4726C2.353 21.3994 1.83218 21.317 1.49446 21.2897C1.15687 21.2623 0.830745 21.2303 0.76975 21.2185C0.708878 21.2068 0.560065 21.2036 0.43916 21.2117C0.106876 21.2337 0.220656 21.7676 0.568403 21.8178C0.71793 21.8393 0.840173 21.9121 0.840173 21.9795C0.840173 22.0468 0.740635 22.0698 0.618885 22.0305C0.397972 21.9593 -0.114643 22.3835 0.0231745 22.5234C0.195169 22.6982 1.50738 22.9608 2.71235 23.0614C3.67017 23.1414 4.4851 23.3079 5.63198 23.6578C7.17345 24.1283 7.26727 24.1769 8.6516 25.2229C9.43732 25.8168 10.5494 26.7531 11.1228 27.3041C12.3506 28.4832 13.3818 29.2106 14.3396 29.5726C15.346 29.953 16.8373 30.8723 17.0246 31.228C17.1135 31.3968 17.3167 31.6218 17.4764 31.7281C17.8852 32.0003 19.5619 33.6325 19.5619 33.7584C19.5619 33.8156 19.3791 34.0317 19.1555 34.2384C18.9319 34.4451 18.6493 34.8389 18.5274 35.1135L18.3059 35.6128L16.3067 35.5327C14.3646 35.4552 14.2679 35.4631 12.9058 35.8129C12.1347 36.0107 11.0748 36.3811 10.5505 36.6358C10.0261 36.8906 9.10792 37.3271 8.51005 37.606C7.01762 38.3026 6.0529 38.881 5.90023 39.1708C5.75675 39.4434 5.91823 39.9765 6.29763 40.4825C6.56783 40.8427 6.59667 41.6011 6.34013 41.6011C6.07875 41.6011 5.91315 42.0025 5.91315 42.6364C5.91315 43.1103 5.94952 43.1967 6.14892 43.1967C6.29097 43.1967 6.52735 43.4075 6.74368 43.727C7.1111 44.2696 7.70923 44.6568 9.47633 45.4963C10.2038 45.8418 10.4075 45.8878 10.9352 45.8247L11.5486 45.7513L11.7633 46.3225C11.8814 46.6368 11.9587 46.9063 11.935 46.9213C11.9114 46.9363 11.6887 47.0192 11.4402 47.1053C11.0457 47.2424 10.9419 47.2345 10.6249 47.0443C10.281 46.8379 10.2506 46.8374 10.0534 47.0377C9.85632 47.2381 9.85778 47.2729 10.0783 47.6891C10.4004 48.2967 11.7882 49.0218 12.4242 48.9147C12.663 48.8748 13.5105 48.7874 14.3077 48.7208C18.7246 48.3519 18.8243 48.3297 19.7403 47.5157C20.7669 46.6032 21.4696 46.0197 21.5421 46.0197C21.5789 46.0197 21.6943 46.1873 21.7985 46.392C21.9026 46.5969 22.0323 46.7364 22.0866 46.7024C22.2067 46.6266 22.17 47.0253 21.9986 47.6563C21.8735 48.117 21.8817 48.1365 22.4438 48.6992C23.4411 49.6978 23.9365 50.4064 23.8441 50.7023C23.7988 50.8472 23.4554 51.3038 23.0811 51.7169C22.2519 52.6317 21.207 53.8485 20.5423 54.673C19.2253 56.3067 17.3896 59.5279 16.5203 61.7306C16.2404 62.4394 15.8321 63.3231 15.6126 63.6943C15.536 63.824 15.4567 63.9684 15.3827 64.1115L21.0036 69.9071L37.8045 52.6853C37.823 52.1352 37.9 51.6765 38.042 51.2657C38.175 50.8818 38.2837 50.4803 38.2837 50.3741C38.2837 50.2678 38.3665 50.0179 38.4678 49.8191C38.7173 49.3289 38.8935 47.7903 38.7692 47.1859C37.9745 43.3157 37.8568 42.2644 38.176 41.8904C38.4412 41.5792 38.646 40.9203 38.646 40.3775C38.646 40.0365 38.5365 39.795 38.1958 39.3831C37.948 39.0842 37.7045 38.8093 37.6545 38.7722C37.506 38.6626 38.246 37.9223 38.6945 37.7319C39.1255 37.5491 39.3963 37.2173 39.7948 36.3847C39.9785 36.0008 40.0303 35.6281 40.0325 34.6767C40.0353 33.4073 40.1305 33.1853 40.5083 33.5692C40.6615 33.7248 40.6755 33.811 40.5692 33.9412C40.493 34.0345 40.465 34.2496 40.507 34.4192C40.5737 34.6892 40.6483 34.7275 41.1065 34.7275C41.3942 34.7275 41.8037 34.666 42.0168 34.5905C42.3372 34.4771 42.3975 34.3981 42.3667 34.1303C42.3452 33.9399 42.222 33.7589 42.0677 33.69C41.7062 33.5288 41.6353 33.0475 41.9315 32.7674C42.1908 32.5215 42.2697 32.1844 42.306 31.1682C42.3192 30.7968 42.3842 30.4533 42.4507 30.4047C42.5292 30.3475 42.517 30.2273 42.4165 30.0623C42.221 29.7417 42.32 29.5726 42.7033 29.5726C43.1435 29.5726 43.8397 29.2442 43.8397 29.0367C43.8397 28.9375 43.9077 28.8285 43.9907 28.7942C44.0957 28.7509 44.1022 28.7011 44.0122 28.6307C43.941 28.575 43.8522 28.4453 43.8153 28.3429C43.7668 28.2081 43.3302 28.093 42.2445 27.9282L40.741 27.6999L40.2835 25.7212C39.898 24.0549 38.7878 19.3086 37.0785 12.0207C36.8807 11.1768 36.4998 9.54745 36.2323 8.39982ZM26.2495 43.6889C26.2878 42.8443 26.3207 42.1396 26.3225 42.1228C26.3245 42.106 26.4093 42.092 26.5107 42.092C26.783 42.092 26.8507 42.3892 26.766 43.2125C26.7125 43.7342 26.7428 44.0736 26.8708 44.3845C27.2708 45.3577 26.941 46.1797 26.4153 45.5197C26.2005 45.2504 26.186 45.0892 26.2495 43.6889ZM14.3681 44.5561C14.9328 44.3408 15.7986 43.9091 16.2921 43.5969C16.9805 43.1614 17.3355 43.0169 17.8166 42.9763C18.1615 42.9473 18.4663 42.9712 18.4939 43.0294C18.5216 43.0879 18.5245 43.5264 18.5005 44.0044L18.4566 44.8734L17.892 45.016C16.6882 45.3201 12.9111 45.3427 13.2371 45.0437C13.2945 44.9911 13.8035 44.7717 14.3681 44.5561ZM53.4405 42.2608C54.0237 41.6626 54.02 40.6968 53.432 40.1036C52.844 39.5103 51.8942 39.5141 51.3107 40.112L21.0037 71.1783L4.0685 53.717C3.48677 53.117 2.53705 53.1104 1.94723 53.702C1.35742 54.2936 1.35087 55.2595 1.9326 55.8592L19.9326 74.4186C20.2139 74.7086 20.5977 74.8724 20.9984 74.8729C21.399 74.8734 21.7832 74.7109 22.0654 74.4219L53.4405 42.2608Z" fill="#F3F3F3"/>
</g>
<defs>
<clipPath id="clip0_4_2">
<rect width="54" height="75" fill="white"/>
</clipPath>
</defs>
</svg>
